<svg width="514.5" height="408" viewBox="0 0 514.5 408" fill="none" xmlns="http://www.w3.org/2000/svg">
	<style>
		.mazo_933 {
			animation: 5s ease-in-out 0s 1 mazo_933;
			animation-direction: both;
			animation-iteration-count: infinite;
			transform-box: fill-box;
			transform-origin: 50% 50%;
			transform: translateX(104.52px) translateY(53.48px) rotate(-3.95deg);
		}

		@keyframes mazo_933 {
			0% {
				transform: translateX(104.52px) translateY(53.48px) rotate(0deg);
			}

			98% {
				transform: translateX(104.52px) translateY(53.48px) rotate(60deg);
			}

			100% {
				transform: translateX(104.52px) translateY(53.48px) rotate(-10.95deg);
			}
		}
	</style>
	<g>
		<g transform="translate(226.87 232.55)">
			<path
				d="M1.29753 25.3187C0.707535 25.3787 0.477542 24.5787 1.00754 24.3087C11.7275 18.9587 22.9475 14.4187 34.2375 10.5187C56.9375 2.66868 102.438 -12.0213 111.408 22.3087C112.588 26.8087 111.828 31.5587 108.138 34.6887C105.468 36.9387 101.998 38.0087 98.5575 38.5787C81.9375 41.3087 66.6075 33.4287 50.6875 30.2887C41.5675 28.4887 32.3975 26.8487 23.1475 25.9187C17.7575 25.3787 7.98753 24.6587 1.29753 25.3187Z"
				fill="#EBEA54" transform="translate(0.71 0.58)" />
			<path
				d="M1.54754 24.7987C1.36754 24.7787 2.17754 24.2987 2.17754 24.2987C2.43754 24.1387 2.75754 24.0086 3.03754 23.8786C3.60754 23.5986 4.18754 23.3187 4.76754 23.0387C6.06754 22.4187 7.36754 21.8086 8.67754 21.2086C11.1575 20.0786 13.6475 18.9886 16.1675 17.9286C21.2675 15.7886 26.4375 13.7987 31.6575 11.9487C37.2075 9.97865 42.7875 8.09866 48.4375 6.43866C60.0975 3.01866 72.5875 0.128658 84.8075 1.35866C90.2975 1.90866 95.7875 3.43865 100.348 6.64865C105.278 10.1187 108.528 15.3187 110.278 21.0387C111.498 25.0387 111.748 29.5387 108.998 32.9887C105.798 36.9987 100.108 38.0686 95.2775 38.4686C85.1375 39.3086 75.2476 36.3987 65.6376 33.5787C60.9276 32.1987 56.1976 30.8286 51.3876 29.8486C45.9676 28.7486 40.5275 27.7586 35.0575 26.9086C26.0375 25.4986 16.8875 24.5387 7.74753 24.5387C5.61753 24.5387 3.49754 24.5987 1.37754 24.7987C0.577539 24.8787 0.257534 25.9287 1.24753 25.8387C10.6475 24.9487 20.3975 25.9787 29.7175 27.2387C40.9875 28.7587 52.1876 30.8687 63.1076 34.0487C72.9676 36.9187 82.9976 40.0587 93.3876 39.6187C98.1976 39.4187 103.408 38.6287 107.478 35.8887C111.108 33.4487 112.938 29.4586 112.648 25.1286C112.418 21.6386 111.058 18.0987 109.458 15.0187C108.078 12.3687 106.278 9.95865 104.078 7.92865C99.8276 4.00865 94.3675 1.81865 88.7275 0.808655C76.0175 -1.46135 62.6075 1.41866 50.3775 4.85866C33.7975 9.52866 17.4475 15.6787 1.99753 23.2687C1.39753 23.5587 0.0975436 23.9287 0.00754358 24.7687C-0.0724564 25.4487 0.497541 25.7587 1.06754 25.8387C1.74754 25.9287 2.52754 24.9287 1.54754 24.7987Z"
				fill="black" transform="translate(0 0)" />
		</g>
		<g transform="translate(236.19 268.18)">
			<path
				d="M0.82052 1.69321C0.42052 1.57321 0.440524 1.01322 0.840524 0.923221C12.9305 -1.58678 25.4205 3.45322 37.0605 6.76322C51.0305 10.7432 68.5405 23.9232 64.5705 40.5232C61.7805 52.2132 49.3405 59.1032 40.0005 49.4832C33.0305 42.2932 28.4705 33.0232 22.6405 24.9832C18.7405 19.6032 8.72052 4.08321 0.82052 1.69321Z"
				fill="#1947FF" transform="translate(0.53 0.25)" />
			<path
				d="M1.32053 1.51321C0.360533 0.913209 3.07054 0.723201 3.31054 0.693201C4.32054 0.573201 5.33053 0.5032 6.35053 0.4732C8.43053 0.4132 10.5205 0.533207 12.5905 0.793207C16.2505 1.24321 19.8605 2.07322 23.4105 3.05322C26.9705 4.03322 30.4905 5.15322 34.0305 6.21322C36.7905 7.04322 39.5305 7.8232 42.1805 8.9732C51.7205 13.1232 61.7205 20.8132 64.1205 31.4732C65.3205 36.7832 64.2805 42.5432 61.2505 47.0732C58.1905 51.6332 52.9205 54.8932 47.3105 53.4732C44.5205 52.7632 42.1705 51.0532 40.2105 49.0032C37.7505 46.4332 35.5905 43.5832 33.5805 40.6532C29.8605 35.2432 26.5406 29.5832 22.7306 24.2332C19.7006 19.9832 16.7405 15.6732 13.4105 11.6532C10.1905 7.76319 6.26054 3.0832 1.26054 1.5032C1.02054 1.4332 0.0905401 1.81319 0.39054 1.90319C5.27054 3.45319 9.14054 8.0932 12.3005 11.8832C15.6605 15.9232 18.6305 20.2432 21.6705 24.5232C25.8605 30.3932 29.4405 36.6632 33.6305 42.5232C37.1505 47.4432 41.4405 53.3532 47.9105 54.1632C59.1305 55.5732 66.6705 43.4332 65.5505 33.4232C64.2505 21.7832 53.5006 13.2032 43.4806 8.76321C40.8306 7.59321 38.1005 6.77321 35.3305 5.95321C31.4205 4.79321 27.5405 3.53321 23.6005 2.48321C19.8705 1.48321 16.0805 0.653218 12.2305 0.273218C8.62054 -0.0867815 4.48054 -0.236791 0.940543 0.763209C0.430543 0.903209 -0.489467 1.39319 0.320533 1.90319C0.580533 2.03319 1.46053 1.60321 1.32053 1.51321Z"
				fill="black" transform="translate(0 0)" />
		</g>
		<g transform="translate(14.68 187.42)">
			<path
				d="M87.8016 79.029C88.4616 79.629 89.4616 78.899 89.1116 78.079C84.4316 67.329 78.8716 56.959 72.8916 46.889C60.6316 26.239 35.3816 -14.371 6.36156 6.049C2.56156 8.729 0.0615611 12.839 0.871561 17.609C1.45156 21.049 3.41156 24.109 5.67156 26.769C16.6016 39.589 33.3916 43.469 47.5716 51.359C55.6916 55.879 63.7616 60.539 71.4216 65.819C75.5816 68.679 83.1816 74.849 87.8016 79.029Z"
				fill="#EBEA54" transform="translate(0.72 0.46)" />
			<path
				d="M87.2316 79.409C88.2516 80.049 90.1316 79.469 89.8716 78.039C89.6516 76.839 88.7915 75.529 88.2915 74.419C87.7015 73.119 87.0916 71.829 86.4816 70.539C84.1416 65.639 81.6315 60.829 79.0015 56.069C75.2315 49.249 71.2615 42.519 67.0415 35.969C63.1215 29.879 58.9116 23.949 54.1516 18.479C49.5716 13.209 44.4115 8.24899 38.3715 4.66899C32.9715 1.46899 26.7815 -0.471006 20.4615 0.0989942C17.1615 0.398994 13.9315 1.359 10.9515 2.789C7.50155 4.449 3.95155 6.63899 1.82155 9.90899C-3.58845 18.239 4.18155 27.219 10.4115 32.379C17.2415 38.039 25.3915 41.649 33.4315 45.219C51.0115 53.019 67.8116 62.939 82.5415 75.339C84.0915 76.639 85.6216 77.969 87.1216 79.319C87.5416 79.699 88.9115 79.129 88.4615 78.719C82.5915 73.419 76.4015 68.349 69.8215 63.959C61.5715 58.459 52.9316 53.239 44.0415 48.819C36.5515 45.099 28.6916 42.159 21.3416 38.149C17.6316 36.119 14.0616 33.809 10.8616 31.029C7.55155 28.149 4.25155 24.679 2.52155 20.589C0.73155 16.349 1.28155 11.839 4.42155 8.38899C6.90155 5.66899 10.5415 3.73899 13.9615 2.44899C19.8715 0.238985 26.2316 0.548994 32.0616 2.84899C38.1016 5.22899 43.3515 9.36899 47.9515 13.879C52.8515 18.689 57.1415 24.109 61.0915 29.709C64.7115 34.849 68.0515 40.179 71.2715 45.579C76.3615 54.099 81.1815 62.789 85.4315 71.759C85.9415 72.829 86.4415 73.909 86.9315 74.989C87.1915 75.569 87.4515 76.149 87.7115 76.719C87.8415 77.009 87.9715 77.299 88.0915 77.589C88.1415 77.709 88.3915 78.639 88.3615 78.619C87.9115 78.359 86.5916 79.009 87.2316 79.409Z"
				fill="black" transform="translate(0 0)" />
		</g>
		<g transform="translate(12.14 246.16)">
			<path
				d="M76.8512 24.6901C77.1012 24.7501 77.2612 24.4301 77.0612 24.2701C67.4912 16.5401 56.7512 9.70013 45.5712 4.65013C32.3312 -1.32987 10.4612 -2.57986 2.77116 12.6501C-2.64884 23.3801 2.40116 36.6801 15.7412 35.3601C25.7012 34.3701 35.1712 30.2401 44.8212 27.8701C51.3312 26.2601 69.8612 22.8801 76.8512 24.6901Z"
				fill="#1947FF" transform="translate(0.63 0.49)" />
			<path
				d="M76.9511 25.0602C78.4011 24.7502 77.1811 23.7302 76.5911 23.2602C74.9411 21.9402 73.2611 20.6602 71.5511 19.4102C68.2411 16.9902 64.8411 14.6902 61.3511 12.5402C55.2411 8.78017 48.7511 5.06015 41.9311 2.73015C32.1311 -0.609846 19.8711 -1.56984 10.5911 3.81016C1.96114 8.80016 -3.43886 21.1002 2.51114 30.1202C5.42114 34.5402 10.5711 36.2202 15.6811 35.7402C23.9811 34.9602 31.8611 31.9702 39.7911 29.6202C45.2111 28.0202 50.7411 26.8801 56.3211 25.9901C61.9411 25.1001 67.7811 24.2501 73.4811 24.6101C74.5111 24.6801 75.5411 24.7902 76.5411 25.0302C77.0011 25.1502 77.7911 24.4702 77.1511 24.3102C72.7311 23.2102 67.8211 23.7801 63.3511 24.2701C58.1511 24.8401 52.9711 25.6901 47.8511 26.7701C41.3511 28.1401 35.0911 30.3502 28.7311 32.2102C24.9311 33.3202 21.0811 34.2902 17.1511 34.7902C14.2411 35.1602 11.3411 35.1502 8.60114 33.9802C4.08114 32.0302 1.56114 27.4202 1.20114 22.6602C0.801142 17.3902 2.84114 12.0302 6.40114 8.16016C13.6911 0.240162 26.0011 -0.169849 35.8411 1.93015C41.8111 3.20015 47.2811 5.77015 52.6511 8.62015C59.4811 12.2502 66.0111 16.4502 72.2011 21.0902C72.9211 21.6302 73.6411 22.1801 74.3611 22.7401C74.9011 23.1601 76.0511 24.4602 76.7611 24.3102C76.0911 24.4702 76.2911 25.2002 76.9511 25.0602Z"
				fill="black" transform="translate(0 0)" />
		</g>
		<g transform="translate(41.93 272.16)">
			<path
				d="M232.101 80.1485C232.531 80.8385 232.961 81.5285 233.391 82.2185C235.471 85.5585 237.631 89.2285 237.201 93.1385C236.441 99.9985 228.591 103.339 221.911 105.099C157.641 122.029 97.6207 124.748 32.2207 117.298C23.0907 116.258 3.9707 114.419 0.560702 105.879C-2.0693 99.3085 5.9807 82.3585 8.7307 75.8385C18.5707 52.5685 23.9407 35.8585 33.3607 16.3485C36.5207 9.7985 43.0907 5.58851 50.3607 5.47851C80.1507 5.02851 158.261 -0.141517 164.041 0.888483C180.441 3.82848 192.491 18.9885 201.601 31.7385C212.651 47.2485 222.091 63.9685 232.101 80.1485Z"
				fill="#7A5CD6" transform="translate(1.04 0.75)" />
			<path
				d="M232.141 80.6185C235.021 85.2685 239.201 91.0285 236.041 96.5785C233.821 100.488 229.061 102.458 224.971 103.738C219.131 105.558 213.081 106.868 207.121 108.238C200.751 109.708 194.361 111.048 187.931 112.258C163.331 116.898 138.361 119.548 113.331 120.258C87.9907 120.978 62.6307 119.709 37.4307 116.979C29.1307 116.079 20.5607 115.418 12.6007 112.748C9.35072 111.658 5.76072 110.158 3.61072 107.348C1.53072 104.618 2.00072 101.088 2.65072 97.9285C4.26072 90.1085 7.84072 82.8285 10.9307 75.5285C15.5307 64.6285 19.7407 53.5785 24.1007 42.5785C26.0607 37.6185 28.0707 32.6785 30.2007 27.7885C31.3207 25.2185 32.4607 22.6585 33.6507 20.1185C34.8007 17.6585 35.8607 15.1285 37.5707 12.9985C40.6607 9.15849 45.2307 6.68848 50.1607 6.32848C53.1407 6.10848 56.1607 6.17849 59.1407 6.08849C74.7507 5.60849 90.3407 4.78849 105.941 3.99849C120.811 3.24849 135.681 2.4185 150.551 1.8485C153.041 1.7485 155.541 1.66848 158.031 1.60848C158.971 1.58848 159.911 1.56849 160.861 1.55849C161.231 1.55849 161.611 1.55849 161.981 1.55849C162.161 1.55849 162.331 1.55849 162.511 1.55849C162.591 1.55849 163.111 1.5685 162.911 1.5685C165.031 1.6185 167.051 2.13849 169.061 2.80849C173.821 4.37849 178.161 6.9985 182.071 10.0985C189.941 16.3485 196.131 24.4785 201.921 32.6185C209.321 43.0285 215.981 53.9385 222.581 64.8685C225.741 70.1185 228.901 75.3885 232.141 80.6185C232.641 81.4285 234.651 80.6285 234.071 79.6885C227.191 68.5485 220.611 57.2385 213.571 46.1985C207.421 36.5585 201.011 26.8785 193.431 18.2785C186.791 10.7385 178.731 3.73849 168.881 0.938495C165.161 -0.121505 161.651 -0.0415198 157.831 0.0484802C143.961 0.38848 130.091 1.20848 116.231 1.91848C99.6207 2.76848 83.0207 3.64849 66.4007 4.27849C63.0607 4.40849 59.7207 4.51848 56.3807 4.60848C52.6407 4.70848 48.8907 4.55849 45.2907 5.77849C40.6807 7.34849 36.7507 10.4585 34.2307 14.6185C32.7607 17.0385 31.6807 19.7385 30.5107 22.3085C29.3607 24.8385 28.2507 27.3785 27.1607 29.9285C22.7107 40.3885 18.7207 51.0385 14.5207 61.5985C12.4007 66.9085 10.2607 72.2185 7.99072 77.4685C6.35072 81.2385 4.72072 84.9985 3.30072 88.8585C1.86072 92.7885 0.460719 96.9085 0.0707191 101.108C-0.239281 104.378 0.43072 107.218 2.86072 109.538C5.59072 112.128 9.31072 113.568 12.8607 114.628C16.9607 115.848 21.2007 116.598 25.4407 117.188C36.5507 118.728 47.7607 119.718 58.9407 120.528C71.9007 121.468 84.8907 121.978 97.8807 122.008C123.551 122.058 149.221 120.138 174.581 116.108C187.541 114.048 200.421 111.458 213.181 108.368C218.651 107.048 224.351 105.928 229.531 103.678C233.491 101.958 237.601 99.2085 238.911 94.8585C240.591 89.3085 236.851 84.1785 234.081 79.7085C233.561 78.8685 231.551 79.6785 232.141 80.6185Z"
				fill="black" transform="translate(0 0)" />
			<path
				d="M2.55071 27.0285C91.6607 43.1985 162.291 24.9785 187.271 16.5885C187.451 16.5285 187.621 16.4385 187.781 16.3285C188.671 15.6985 188.901 14.4785 188.281 13.5785L179.971 1.30849C179.391 0.458487 178.271 0.178473 177.371 0.668473L176.191 1.30849C176.091 1.35849 175.991 1.40847 175.881 1.44847C151.071 9.81847 98.3707 23.9785 9.13071 10.6885L6.72071 10.1985C5.70071 9.98847 4.70071 10.5985 4.41071 11.5985L0.650711 24.4185C0.340711 25.4885 0.960708 26.6085 2.03071 26.9085L2.36071 26.9985C2.42071 26.9985 2.49071 27.0185 2.55071 27.0285Z"
				fill="#EF726C" transform="translate(20.57 20.43)" />
			<path
				d="M2.67072 28.4685C22.7307 32.0985 43.0507 34.2385 63.4307 34.8085C80.8407 35.2985 98.2807 34.6785 115.601 32.9085C129.521 31.4885 143.371 29.3485 157.051 26.3985C166.561 24.3485 176.001 21.9285 185.271 18.9785C186.911 18.4585 189.781 18.0485 190.531 16.3085C191.201 14.7285 189.531 13.0485 188.711 11.8385C187.251 9.67851 185.781 7.50852 184.321 5.34852C183.521 4.15852 182.751 2.51851 181.661 1.54851C179.771 -0.121494 177.081 1.95852 175.161 2.59852C173.531 3.13852 171.901 3.6585 170.271 4.1685C166.311 5.3985 162.311 6.52852 158.291 7.55852C147.791 10.2585 137.111 12.2685 126.371 13.7185C111.941 15.6585 97.3707 16.5485 82.8107 16.6485C64.2207 16.7685 45.6207 15.5685 27.1607 13.3885C21.8707 12.7685 16.5707 12.1285 11.3207 11.2785C9.02072 10.9085 5.45072 9.77851 4.34072 12.7685C3.78072 14.2685 3.43072 15.8785 2.98072 17.4185C2.29072 19.7585 1.61072 22.0885 0.920719 24.4285C0.790719 24.8585 0.630721 25.2985 0.550721 25.7485C0.260721 27.2485 1.32072 28.1585 2.67072 28.4685C3.15072 28.5785 3.77072 28.4485 4.19072 28.2085C4.37072 28.1085 4.95072 27.7085 4.44072 27.5885C1.90072 27.0085 2.84072 24.8085 3.35072 23.0885C4.05072 20.7085 4.75072 18.3285 5.45072 15.9485C5.72072 15.0185 5.99072 14.0985 6.26072 13.1685C6.39072 12.7385 6.60072 11.7485 6.95072 11.6585C7.36072 11.5585 8.20072 11.9085 8.62072 11.9985C9.22072 12.1185 9.81072 12.2085 10.4207 12.2985C13.0107 12.6785 15.6007 13.0385 18.1907 13.3885C36.5807 15.8285 55.1107 17.3185 73.6607 17.5685C88.3507 17.7685 103.051 17.1885 117.661 15.6085C128.901 14.3985 140.061 12.5985 151.091 10.1085C159.091 8.2985 166.991 6.10852 174.791 3.55852C175.551 3.30852 176.321 3.07851 177.071 2.79851C177.511 2.63851 177.921 2.43852 178.331 2.21852C179.061 1.81852 179.181 1.79853 179.831 2.50853C180.831 3.59853 181.591 5.07852 182.421 6.30852C183.841 8.39852 185.251 10.4885 186.671 12.5885C187.391 13.6485 189.581 16.0185 188.001 17.2285C187.461 17.6385 186.451 17.7885 185.811 17.9985C185.041 18.2485 184.271 18.4985 183.491 18.7385C181.581 19.3285 179.671 19.8985 177.751 20.4485C173.091 21.7885 168.401 22.9985 163.681 24.1185C151.271 27.0485 138.681 29.2785 126.031 30.8885C109.891 32.9485 93.6107 33.9785 77.3307 34.0385C58.0707 34.1085 38.8007 32.7685 19.7307 30.0685C14.6207 29.3485 9.53072 28.5185 4.45072 27.5985C3.96072 27.5085 3.36072 27.6085 2.93072 27.8585C2.76072 27.9385 2.15072 28.3785 2.67072 28.4685Z"
				fill="black" transform="translate(19.5 19.91)" />
			<path
				d="M196.331 1.01851C184.941 5.61851 113.841 31.5185 5.3507 9.39851C4.3807 9.19851 3.4007 9.69853 3.0007 10.5985L0.630703 15.8685C0.0807029 17.0885 0.7907 18.5085 2.1007 18.7985C18.8007 22.4485 115.181 41.2185 200.631 9.26851C201.891 8.79851 202.391 7.27851 201.661 6.14851L198.901 1.83852C198.351 0.978515 197.281 0.628508 196.331 1.01851Z"
				fill="#EF726C" transform="translate(14.44 41.86)" />
			<path
				d="M197.021 0.618504C192.311 2.5185 187.471 4.0985 182.611 5.5485C173.271 8.3185 163.751 10.5085 154.171 12.2585C140.511 14.7485 126.681 16.3185 112.821 17.1085C95.0507 18.1285 77.2207 17.8485 59.4807 16.4285C49.3207 15.6185 39.1907 14.4385 29.1107 12.8985C23.6807 12.0785 18.2707 11.1485 12.8807 10.1285C11.4907 9.86851 10.1007 9.59852 8.7107 9.31852C7.6807 9.11852 6.5607 8.70851 5.5007 8.90851C4.2607 9.13851 3.5507 9.97852 3.0607 11.0685C2.5207 12.2585 1.9907 13.4585 1.4507 14.6485C1.0307 15.5785 0.480699 16.5285 0.820699 17.5785C1.3807 19.3085 3.4807 19.4185 5.0007 19.7385C8.4907 20.4585 12.0007 21.1185 15.5107 21.7285C27.1607 23.7485 38.9107 25.2485 50.6907 26.3085C66.9307 27.7585 83.2607 28.3485 99.5607 27.9485C118.571 27.4885 137.561 25.6885 156.261 22.1985C166.101 20.3585 175.861 18.0385 185.461 15.1785C190.301 13.7385 195.091 12.1485 199.831 10.4285C201.421 9.8485 203.621 9.34851 203.721 7.27851C203.771 6.22851 203.001 5.3285 202.461 4.4885C201.211 2.5285 200.061 -0.351503 197.201 0.548497C196.331 0.818497 196.561 1.74851 197.451 1.46851C198.911 1.00851 199.641 2.77851 200.281 3.77851C200.841 4.64851 201.481 5.50849 201.971 6.41849C202.541 7.48849 202.191 8.45849 201.101 8.94849C199.881 9.49849 198.551 9.8885 197.291 10.3285C194.901 11.1685 192.511 11.9785 190.101 12.7485C180.871 15.6985 171.471 18.1385 161.981 20.1085C143.631 23.9185 124.951 25.9985 106.231 26.7585C89.9207 27.4185 73.5807 27.0585 57.3007 25.8285C45.0407 24.8985 32.8207 23.4785 20.6807 21.5285C16.7307 20.8885 12.7907 20.1985 8.8707 19.4285C7.5307 19.1685 6.1807 18.8885 4.8407 18.6085C4.1507 18.4585 3.1707 18.3885 2.6707 17.8585C1.6707 16.8085 2.4807 15.5485 2.9607 14.4885C3.4607 13.3685 3.9707 12.2485 4.4707 11.1285C4.7607 10.4885 4.8607 10.1985 5.7007 10.0685C7.0607 9.84852 8.6007 10.3985 9.9507 10.6585C15.2207 11.6885 20.5007 12.6185 25.8007 13.4585C35.6607 15.0185 45.5807 16.2485 55.5307 17.1285C72.7807 18.6485 90.1307 19.0985 107.431 18.3585C121.301 17.7585 135.141 16.3985 148.841 14.1385C158.851 12.4885 168.801 10.3885 178.581 7.6785C184.311 6.0985 189.991 4.3185 195.551 2.2085C196.241 1.9485 196.941 1.6785 197.631 1.3985C198.571 1.0285 197.751 0.328505 197.021 0.618504Z"
				fill="black" transform="translate(13.71 41.38)" />
			<path
				d="M1.1707 5.86851C7.2307 7.62851 13.6007 8.57852 19.8507 9.34852C35.1107 11.2085 50.6507 11.1385 65.8807 9.05851C76.9307 7.54851 87.8207 4.9585 98.3507 1.2685C99.2107 0.968502 98.9707 -0.0314879 98.0907 0.278512C80.6107 6.40851 62.1607 9.4385 43.6507 9.6085C31.7507 9.7185 19.7607 8.7085 8.09069 6.3285C6.05069 5.9185 4.0007 5.47851 2.0107 4.89851C1.3807 4.71851 0.290697 5.61851 1.1707 5.86851Z"
				fill="black" transform="translate(55.84 0.22)" />
		</g>
		<g transform="translate(97.68 67.67) rotate(-3.95)" class="mazo_933">
			<path
				d="M19.5057 2.2715C21.3257 4.0215 22.0657 6.71149 21.8157 9.22149C21.6657 10.8115 21.1557 12.4615 23.2757 13.8115C24.7057 14.7215 26.4657 14.9015 28.1357 14.5915C33.3657 13.6215 39.8857 17.1115 44.9457 18.3815C57.0857 21.4215 107.286 33.4915 119.926 33.4915C129.276 33.7215 138.856 32.0015 147.696 29.9615C164.646 26.0515 232.006 30.3415 248.376 31.0715C262.766 31.7215 279.776 30.3115 293.156 36.5215C299.556 39.4915 305.176 44.9915 306.526 51.9215C308.286 60.9615 302.236 70.1615 294.156 74.5915C284.326 79.9915 272.206 79.6515 261.326 78.8415C240.236 77.2715 158.566 64.6215 139.036 58.9315C132.426 57.0015 126.556 52.6815 119.706 51.9715C112.966 51.2815 35.3157 54.3515 22.9857 53.2215C21.0057 53.0415 14.8157 50.8815 14.5557 54.4615C14.2957 58.1215 10.9957 61.5815 5.33573 59.2015C5.09573 59.1015 4.85572 58.9615 4.65572 58.8015C2.44572 57.0015 1.77572 53.9515 1.40572 51.1315C0.0657246 41.0615 0.795738 30.7315 3.43574 20.9215C4.88574 15.6215 10.6157 -6.3085 19.5057 2.2715Z"
				fill="#EF726C" transform="translate(97.75 78.3)" />
			<path
				d="M19.5257 3.6915C20.9457 5.1615 21.7057 7.05151 21.7957 9.09151C21.8657 10.6615 21.1757 12.4115 21.9757 13.8815C23.9457 17.5015 28.6657 15.8115 31.8157 16.0915C35.9057 16.4515 39.7357 18.2815 43.6157 19.4915C45.4057 20.0515 47.2357 20.4515 49.0557 20.9015C59.4757 23.4515 69.9157 25.8915 80.3957 28.1815C91.3957 30.5915 102.456 33.0415 113.626 34.5115C118.706 35.1815 123.726 35.2515 128.836 34.8415C133.526 34.4715 138.176 33.7215 142.786 32.8115C145.576 32.2515 148.336 31.5015 151.156 31.0815C160.696 29.6415 170.576 29.8815 180.196 29.9815C192.626 30.1015 205.046 30.5615 217.466 31.1215C227.006 31.5515 236.536 32.0715 246.076 32.5515C252.566 32.8815 259.066 32.8615 265.556 33.0515C274.146 33.3015 282.986 33.9215 291.066 37.0815C298.186 39.8715 304.946 45.3415 306.476 53.2115C308.006 61.0415 303.516 68.8615 297.376 73.4415C290.286 78.7215 280.946 79.7815 272.366 79.7015C267.206 79.6515 262.056 79.2515 256.926 78.7015C234.846 76.3515 212.866 72.8115 190.966 69.1915C179.736 67.3315 168.506 65.3915 157.336 63.1615C153.266 62.3515 149.196 61.5115 145.166 60.5315C143.766 60.1915 142.366 59.8415 140.986 59.4415C136.956 58.2815 133.276 56.2615 129.416 54.6615C125.696 53.1215 122.016 52.3015 118.036 52.2715C114.816 52.2515 111.606 52.3115 108.386 52.3615C98.2857 52.5415 88.1957 52.8215 78.1057 53.0715C67.1657 53.3415 56.2357 53.6215 45.2957 53.7815C41.0957 53.8415 36.9057 53.8915 32.7057 53.8715C30.0257 53.8615 27.2857 53.9315 24.6157 53.6415C22.4357 53.4115 20.3357 52.6215 18.1157 52.8515C17.1257 52.9515 16.0457 53.2415 15.3057 53.9415C14.3857 54.8215 14.5857 56.0615 14.2157 57.1815C12.9057 61.1315 7.77574 61.3415 5.46574 58.1015C4.35574 56.5515 3.91573 54.6015 3.62573 52.7515C3.24573 50.3715 3.04573 47.9615 2.92573 45.5515C2.51573 37.0015 3.66573 28.5315 5.92573 20.2915C7.16573 15.7615 8.58573 11.1515 10.8757 7.03149C11.8357 5.31149 13.0257 3.3315 14.7757 2.3215C16.5057 1.3215 18.2457 2.4915 19.5257 3.6915C20.0757 4.2015 22.0557 3.4015 21.4857 2.8615C18.2057 -0.218503 14.1257 0.321506 11.2257 3.62151C8.02573 7.26151 6.32573 12.2815 4.90573 16.8315C2.87573 23.3115 1.41574 29.9715 0.935741 36.7615C0.595741 41.4915 0.685739 46.2615 1.21574 50.9815C1.58574 54.2715 2.11573 59.0715 5.53573 60.7115C8.25573 62.0215 11.8557 61.9415 14.2457 59.9815C15.2657 59.1415 15.9957 58.0215 16.3757 56.7515C16.7057 55.6515 16.3957 54.1715 17.8357 54.0115C19.8957 53.7815 22.0157 54.6915 24.0657 54.8515C25.2557 54.9415 26.4457 54.9715 27.6357 55.0015C36.4857 55.2115 45.3557 54.9815 54.2057 54.8015C65.6157 54.5715 77.0257 54.2715 88.4357 53.9815C97.2757 53.7615 106.126 53.4915 114.966 53.4515C117.626 53.4415 120.246 53.3815 122.846 54.0115C127.226 55.0615 131.186 57.3215 135.316 59.0315C137.516 59.9415 139.776 60.6315 142.076 61.2215C151.026 63.5115 160.156 65.1415 169.236 66.7915C181.576 69.0315 193.956 71.0715 206.346 73.0015C218.206 74.8515 230.076 76.6115 241.966 78.1715C251.426 79.4115 260.956 80.6915 270.516 80.8715C278.816 81.0315 287.426 80.2115 294.916 76.3715C301.496 72.9915 307.096 66.8115 308.556 59.4015C310.056 51.7815 306.216 44.6415 300.206 40.1215C293.786 35.2915 285.526 33.4415 277.686 32.5515C269.066 31.5815 260.386 31.8215 251.726 31.5315C247.836 31.4015 243.946 31.1715 240.056 30.9615C228.736 30.3715 217.426 29.8015 206.096 29.3815C193.756 28.9215 181.386 28.5615 169.036 28.7715C164.296 28.8515 159.536 29.0015 154.816 29.4615C148.936 30.0315 143.246 31.6915 137.416 32.6215C130.666 33.7015 123.736 34.3115 116.916 33.5715C112.026 33.0415 107.156 32.1515 102.326 31.2515C90.1057 28.9615 77.9557 26.2315 65.8457 23.4215C60.9957 22.2915 56.1557 21.1415 51.3157 19.9615C49.7357 19.5715 48.1557 19.2015 46.5857 18.7915C42.6457 17.7715 38.9457 15.9915 34.9457 15.1915C33.2257 14.8515 31.4557 14.6915 29.7057 14.9215C27.6357 15.1915 24.5557 15.1215 23.8157 12.6415C23.3857 11.2215 24.0157 9.5015 23.8657 8.0215C23.6657 6.0615 22.8457 4.2515 21.4757 2.8315C20.9657 2.3215 18.9657 3.1115 19.5257 3.6915Z"
				fill="black" transform="translate(96.73 77.82)" />
			<path
				d="M106.296 185.611C105.736 183.781 105.386 181.961 105.856 180.121C106.246 178.611 107.186 177.201 107.126 175.641C107.016 172.821 103.936 171.281 101.816 169.421C98.2857 166.311 97.1857 160.891 98.8757 156.551C99.3857 155.251 100.626 154.451 102.006 154.231C104.366 153.851 106.506 151.951 106.916 149.571C107.306 147.301 106.086 144.931 104.166 143.711C102.936 142.931 102.256 141.511 102.396 140.061C104.236 121.761 106.076 103.471 107.926 85.1715C108.226 82.1915 106.546 76.1015 109.866 75.7215C115.536 75.0715 118.376 70.4215 115.576 66.1715C114.256 64.1715 112.066 63.0215 110.816 60.9815C108.576 57.3015 111.726 53.0415 115.696 52.6315C117.896 52.4115 120.056 53.4915 122.026 51.9415C124.006 50.3715 124.616 47.4715 123.806 45.1115C123.276 43.5515 123.936 41.8415 125.206 40.7915C130.276 36.6215 132.146 28.7715 130.006 22.3715C127.486 14.8115 120.606 9.36148 113.156 6.57148C105.706 3.78148 97.6057 3.27148 89.6557 2.79148C77.5857 2.06148 65.5157 1.32148 53.4357 0.591478C37.2657 -0.388522 16.8357 2.78148 25.2957 24.0215C25.6357 24.8615 25.9957 26.0915 26.4357 27.2715C26.9557 28.6415 26.6457 30.1515 25.6857 31.2615C23.9457 33.2815 23.4657 36.4415 25.0357 38.6315C25.8057 39.7015 26.9957 40.5015 28.3057 40.7215C30.5357 41.1015 32.7857 39.7015 34.2657 42.1715C34.7057 42.9015 34.9157 43.7515 35.0357 44.6015C35.3357 46.6815 35.1457 48.8415 34.4857 50.8415C34.2657 51.5015 33.9857 52.1715 33.4657 52.6315C32.7257 53.2915 31.6657 53.4315 30.6757 53.4015C29.1857 53.3615 27.4657 53.0315 26.2257 54.1015C24.6157 55.4815 23.6857 58.4615 25.1257 60.9015C25.5957 61.6915 26.3857 62.2415 27.1557 62.7315C31.5557 65.5415 30.2757 70.0415 29.4757 74.4515C26.2257 92.5515 22.9857 110.651 19.7357 128.751C19.4757 130.191 18.4357 131.361 17.0357 131.781C14.8557 132.421 13.0257 134.371 12.7757 136.661C12.5157 139.071 14.0557 141.481 16.2257 142.491C17.4857 143.081 18.4657 144.191 18.5957 145.581C19.0357 150.211 16.4857 155.131 12.2457 157.151C9.69573 158.361 6.31574 159.001 5.43574 161.681C4.94574 163.161 5.46573 164.781 5.42573 166.341C5.37573 168.091 5.33574 171.581 4.51574 173.371C4.38574 173.661 4.17574 173.901 3.96574 174.131C0.0957355 178.361 -0.914261 184.841 0.945739 190.281C2.85574 195.871 7.47574 200.311 12.8857 202.681C17.4757 204.691 22.5257 205.311 27.4957 205.911C41.8357 207.641 56.1657 209.371 70.5057 211.101C78.7757 212.101 87.4057 213.051 95.2157 210.181C103.026 207.311 109.646 199.311 108.006 191.151C107.636 189.281 106.856 187.441 106.296 185.611Z"
				fill="#7A5CD6" transform="translate(1.04 0.44)" />
			<path
				d="M108.356 185.331C107.886 183.741 107.496 182.062 107.806 180.402C108.066 178.942 108.916 177.661 109.136 176.201C109.496 173.761 107.686 172.102 105.936 170.742C103.866 169.122 102.046 167.571 101.036 165.061C100.066 162.651 99.8757 159.902 100.586 157.402C100.996 155.942 101.626 154.961 103.156 154.581C104.296 154.301 105.376 153.922 106.346 153.242C108.206 151.952 109.376 149.791 108.976 147.501C108.786 146.401 108.256 145.371 107.526 144.531C106.586 143.451 105.226 142.962 104.696 141.542C104.196 140.222 104.576 138.671 104.716 137.311C104.886 135.581 105.066 133.852 105.236 132.122C106.626 118.362 108.006 104.591 109.396 90.8315C109.666 88.1215 110.136 85.3715 109.986 82.6415C109.886 80.8315 109.456 78.5815 110.216 76.8615C110.656 75.8715 111.486 76.0515 112.446 75.8015C113.566 75.5015 114.666 75.0615 115.646 74.4415C117.236 73.4215 118.476 71.8515 118.706 69.9415C118.976 67.6415 117.726 65.6715 116.136 64.1315C114.366 62.4015 112.066 60.7515 112.156 57.9915C112.246 55.2415 114.646 52.9115 117.386 53.0815C119.726 53.2315 122.046 53.4615 123.996 51.8815C125.766 50.4515 126.496 48.0415 126.126 45.8315C125.896 44.4715 125.416 43.4415 126.096 42.0815C126.706 40.8615 128.016 40.0715 128.896 39.0415C132.026 35.3815 133.366 30.3315 132.836 25.5815C131.636 14.8415 121.356 7.8415 111.766 5.1015C105.726 3.3715 99.4257 2.8715 93.1857 2.4715C86.2857 2.0415 79.3957 1.6315 72.4957 1.2115C66.0657 0.821497 59.6357 0.3015 53.1957 0.0614996C49.2857 -0.0885004 45.3557 0.0214975 41.4857 0.551498C35.2757 1.4015 27.6057 3.5515 24.5557 9.6215C22.9057 12.9115 23.0557 16.7615 23.9257 20.2415C24.5757 22.8715 25.8757 25.3115 26.5257 27.9415C26.8957 29.4315 26.3157 30.5715 25.4457 31.7415C24.6957 32.7415 24.2257 33.9315 24.0957 35.1815C23.8457 37.6015 25.1457 39.9315 27.4357 40.8515C29.6357 41.7315 32.8157 40.1215 34.2457 42.4715C35.7657 44.9715 35.3857 49.1315 34.2357 51.6915C33.4957 53.3315 32.0957 52.9115 30.6157 52.9015C29.5157 52.8915 28.4257 53.0415 27.4157 53.5015C25.4057 54.4115 24.2957 56.6915 24.4057 58.8415C24.4657 60.0415 24.9257 61.1915 25.7857 62.0415C26.7457 62.9915 28.0157 63.5015 28.8857 64.5615C30.4957 66.5215 30.4057 69.1615 30.0457 71.5215C29.5857 74.5315 28.9657 77.5215 28.4257 80.5215C25.9657 94.2215 23.5157 107.911 21.0557 121.611C20.7657 123.241 20.4757 124.871 20.1757 126.501C19.9157 127.961 19.8857 129.732 18.7857 130.852C17.9757 131.682 16.6157 131.862 15.6357 132.512C14.6957 133.132 13.8857 133.971 13.3557 134.971C12.2057 137.151 12.7657 139.712 14.3957 141.482C15.2357 142.402 16.3557 142.732 17.2857 143.512C18.3757 144.422 18.6357 145.591 18.6257 146.951C18.6157 149.611 17.6457 152.312 15.9557 154.372C14.2157 156.482 11.9657 157.261 9.54573 158.301C7.58573 159.151 5.55573 160.381 5.24573 162.691C5.07573 164.001 5.40573 165.312 5.39573 166.632C5.38573 167.802 5.33574 168.972 5.22574 170.132C5.12574 171.252 5.01574 172.541 4.48574 173.561C3.90574 174.691 2.82573 175.602 2.17573 176.712C0.905732 178.892 0.205733 181.382 0.0357326 183.902C-0.304267 189.102 1.80573 194.041 5.35573 197.781C9.26573 201.891 14.4857 204.091 19.9657 205.201C26.4457 206.501 33.1257 207.001 39.6857 207.791C46.6057 208.621 53.5257 209.461 60.4457 210.291C67.0657 211.091 73.7157 212.132 80.3857 212.462C90.9557 212.982 103.176 210.541 108.536 200.311C109.626 198.231 110.276 195.921 110.306 193.561C110.346 190.651 109.206 188.031 108.356 185.331C108.196 184.831 106.096 185.432 106.246 185.902C107.116 188.672 108.276 191.342 108.196 194.292C108.136 196.762 107.336 199.172 106.106 201.292C103.306 206.132 98.4857 209.432 93.1057 210.752C87.0257 212.242 80.5957 211.621 74.4457 210.921C67.7557 210.151 61.0757 209.311 54.3857 208.511C47.7157 207.711 41.0357 206.901 34.3657 206.101C28.0957 205.341 21.5057 204.992 15.5857 202.622C10.6257 200.642 6.20573 196.932 3.85573 192.092C1.59573 187.442 1.45574 181.821 3.80574 177.171C4.38574 176.031 5.10573 175.052 5.92573 174.072C6.66573 173.182 6.95574 172.221 7.13574 171.081C7.49574 168.891 7.58574 166.562 7.38574 164.352C7.25574 162.922 7.18574 161.451 8.16574 160.281C8.95574 159.331 10.1757 158.831 11.2957 158.391C13.4257 157.541 15.4757 156.681 17.1257 155.031C18.7657 153.381 19.9257 151.262 20.4257 148.992C20.8957 146.872 21.0757 144.321 19.2557 142.801C18.3857 142.071 17.3057 141.742 16.4957 140.902C15.5257 139.902 14.8757 138.522 14.8357 137.122C14.7957 135.812 15.3057 134.541 16.1657 133.561C17.1457 132.451 18.3657 132.241 19.5757 131.561C22.0057 130.191 22.0157 127.402 22.4557 124.932C23.0557 121.592 23.6557 118.242 24.2557 114.902C25.4357 108.302 26.6257 101.692 27.8057 95.0915C28.9857 88.4915 30.1757 81.8815 31.3557 75.2815C32.1257 70.9615 33.7257 65.6715 29.4957 62.6215C28.3357 61.7815 27.2857 61.1815 26.7757 59.7515C26.3157 58.4515 26.4057 57.0415 26.9557 55.7815C27.1857 55.2515 27.5257 54.6515 27.9657 54.2615C28.5857 53.7215 29.1557 53.7815 29.9457 53.8215C31.1357 53.8815 32.2857 53.9215 33.4457 53.5915C36.0857 52.8415 36.8057 50.5715 37.1257 48.0415C37.4057 45.8215 37.4557 42.1715 35.2957 40.7715C33.3257 39.5015 30.8457 40.9615 28.7857 39.8415C26.3157 38.4915 25.6057 35.4915 26.6057 32.9715C27.0557 31.8515 27.9957 31.0515 28.4357 29.9415C28.9657 28.6115 28.6257 27.4215 28.1657 26.1315C27.3457 23.7915 26.3957 21.4815 25.8657 19.0615C25.0957 15.5915 25.1057 11.8415 26.9357 8.6915C28.5457 5.9315 31.3057 4.1115 34.2457 3.0015C41.8257 0.151498 50.3057 0.841498 58.2157 1.3215C64.9957 1.7315 71.7757 2.1515 78.5557 2.5615C84.9657 2.9515 91.3857 3.2215 97.7757 3.8215C108.906 4.8615 121.266 8.0115 127.696 18.0415C130.386 22.2315 131.466 27.2215 130.376 32.1215C129.826 34.5815 128.776 36.9815 127.176 38.9415C125.786 40.6515 123.516 41.8415 123.546 44.3315C123.566 45.5115 124.116 46.5715 124.076 47.7815C124.026 49.0415 123.606 50.3515 122.786 51.3315C121.676 52.6615 120.436 52.3415 118.906 52.2315C117.726 52.1415 116.566 52.2315 115.426 52.5615C111.336 53.7415 108.276 58.1315 111.236 62.0015C112.796 64.0415 115.226 65.3215 116.196 67.8015C116.976 69.8015 116.566 72.0015 115.036 73.5315C114.156 74.4215 113.026 74.9915 111.796 75.2315C110.896 75.4115 110.026 75.4715 109.216 75.9615C107.856 76.8015 107.706 78.4615 107.686 79.9215C107.666 81.7715 107.996 83.6315 107.846 85.4815C107.596 88.7815 107.186 92.0815 106.846 95.3715C106.166 102.132 105.486 108.891 104.806 115.641C104.136 122.321 103.466 128.991 102.786 135.671C102.536 138.191 101.436 141.671 103.576 143.661C104.576 144.591 105.586 145.112 106.246 146.402C106.836 147.542 107.076 148.862 106.776 150.122C106.496 151.342 105.706 152.461 104.686 153.191C103.646 153.931 102.356 153.932 101.216 154.462C99.0757 155.452 98.3657 157.422 98.1057 159.652C97.8257 162.042 98.2357 164.491 99.3357 166.641C100.436 168.791 102.186 170.151 104.046 171.611C105.996 173.141 107.576 174.891 106.806 177.521C106.426 178.821 105.766 179.991 105.606 181.361C105.436 182.921 105.776 184.442 106.216 185.932C106.386 186.392 108.496 185.811 108.356 185.331Z"
				fill="black" transform="translate(0 0)" />
			<path
				d="M0.345734 1.62147C1.63573 2.37147 3.08573 2.85148 4.48573 3.35148C6.88573 4.20148 9.31574 4.93148 11.7557 5.64148C18.5357 7.59148 25.3957 9.23147 32.3057 10.6215C43.7157 12.9315 55.1957 13.9615 66.8257 14.4415C69.5257 14.5515 72.2257 14.6415 74.9157 14.6115C77.2757 14.5915 79.5557 14.0315 81.8557 13.5615C83.1957 13.2915 82.8557 12.1015 81.5357 12.3715C79.6257 12.7615 77.6957 13.2715 75.7357 13.2915C73.4157 13.3115 71.0957 13.2515 68.7757 13.1615C63.1957 12.9515 57.6257 12.6015 52.0657 12.1115C39.6957 11.0215 27.4757 8.35148 15.5157 5.07148C12.6157 4.27148 9.72573 3.43147 6.87573 2.47147C5.25573 1.92147 3.55573 1.39147 2.06573 0.521473C1.39573 0.131473 -0.594266 1.07147 0.345734 1.62147Z"
				fill="black" transform="translate(33.1 40.43)" />
			<path
				d="M0.625725 1.76149C9.18573 4.91149 17.9157 7.52149 26.8857 9.20149C38.2557 11.3315 49.8357 12.1515 61.3757 12.4915C65.6457 12.6215 69.9257 12.6715 74.2057 12.6815C76.5657 12.6815 78.9257 12.6715 81.2857 12.6515C82.7957 12.6415 84.3257 12.4415 85.7057 11.7615C86.0457 11.5915 86.2857 11.4315 85.9657 11.1915C85.6757 10.9615 84.7157 11.3315 84.4457 11.4715C83.8257 11.7715 83.1157 11.7515 82.4457 11.7615C81.3257 11.7715 80.2057 11.7815 79.0857 11.7815C77.1757 11.7915 75.2557 11.7915 73.3457 11.7815C69.7557 11.7615 66.1657 11.7015 62.5757 11.6015C56.4657 11.4215 50.3657 11.0915 44.2857 10.5215C34.7757 9.62149 25.3457 8.03149 16.1357 5.44149C11.4957 4.13149 6.92573 2.5915 2.39573 0.931497C1.92573 0.731497 -0.0142748 1.52149 0.625725 1.76149Z"
				fill="black" transform="translate(29.5 52.9)" />
			<path
				d="M0.585746 2.10148C20.3657 6.75148 40.3457 11.2315 60.6757 12.5115C63.3957 12.6815 66.1258 12.8515 68.8558 12.6915C72.3558 12.4915 75.8158 11.9415 79.3258 11.8915C80.5258 11.8715 81.0358 10.3915 79.5458 10.4115C76.5158 10.4515 73.5158 10.8715 70.4958 11.1215C67.8658 11.3315 65.2557 11.2615 62.6257 11.1115C58.2957 10.8615 53.9757 10.4715 49.6657 9.96148C40.1157 8.82148 30.6557 7.07148 21.2557 5.09148C14.7757 3.72148 8.31574 2.24148 1.86574 0.731478C1.36574 0.611478 0.675751 0.711482 0.325751 1.14148C0.0457514 1.48148 0.0657459 1.98148 0.585746 2.10148Z"
				fill="black" transform="translate(30.15 65.68)" />
			<path
				d="M1.63573 1.42146C23.0057 1.94146 44.2857 3.80147 65.3857 7.24147C72.5057 8.40147 79.5957 9.71147 86.6657 11.1315C87.1457 11.2315 87.8557 11.1115 88.2057 10.7215C88.4957 10.3915 88.4857 10.0015 87.9857 9.89146C65.4857 5.37146 42.7657 2.12146 19.8457 0.811458C14.0557 0.481458 8.25573 0.261471 2.45573 0.121471C2.02573 0.111471 1.21573 0.271471 1.02573 0.731471C0.845733 1.18147 1.18573 1.41146 1.63573 1.42146Z"
				fill="black" transform="translate(16.98 131.12)" />
			<path
				d="M0.475732 1.76149C22.0757 2.05149 43.5857 4.49148 64.9157 7.78148C70.9657 8.71148 76.9957 9.71149 83.0257 10.7615C83.5157 10.8415 84.1157 10.7215 84.5457 10.4815C84.7057 10.4015 85.3157 9.99148 84.8057 9.91148C63.4057 6.21148 41.8757 3.01149 20.1957 1.60149C14.0957 1.20149 7.98573 0.951491 1.87573 0.871491C1.41573 0.861491 0.695733 0.95148 0.335733 1.28148C0.0957329 1.51148 -0.0142678 1.75149 0.475732 1.76149Z"
				fill="black" transform="translate(18.13 144.87)" />
			<path
				d="M0.855736 1.12148C4.50574 0.801485 8.22573 1.00148 11.8757 1.13148C17.8957 1.35148 23.9057 1.73147 29.9157 2.20147C43.5957 3.27147 57.3457 4.69147 70.8257 7.31147C76.1157 8.34147 81.6857 9.42148 86.5757 11.7615C86.9957 11.9615 87.5657 11.8115 87.9757 11.6515C88.0657 11.6215 88.9757 11.1815 88.6157 11.0115C84.3357 8.96148 79.5757 7.89147 74.9557 6.92147C68.4857 5.56147 61.9257 4.58149 55.3757 3.73149C42.0057 2.01149 28.5357 0.841479 15.0657 0.271479C10.6757 0.0814789 6.17574 -0.188528 1.78574 0.201472C1.43574 0.231472 0.495739 0.351486 0.335739 0.731486C0.175739 1.11149 0.475736 1.15148 0.855736 1.12148Z"
				fill="black" transform="translate(13.29 156)" />
			<path
				d="M1.18574 1.15149C22.1357 1.31149 43.0757 2.94148 63.7657 6.25148C75.0857 8.06148 86.2857 10.4515 97.3857 13.3015C98.5357 13.5915 99.6757 13.9215 100.836 14.1615C101.346 14.2715 103.916 14.3215 103.546 13.4715C103.296 12.8915 101.176 13.6015 101.376 14.0515C101.216 13.6815 102.906 13.2815 102.976 13.3415C102.836 13.2315 102.896 13.3415 102.826 13.3215C102.496 13.2415 102.156 13.1815 101.816 13.1015C100.646 12.8215 99.4857 12.5115 98.3257 12.2115C94.0757 11.1215 89.8057 10.0915 85.5157 9.15149C70.2857 5.82149 54.8457 3.50149 39.3257 2.04149C27.1057 0.891489 14.8357 0.301477 2.56573 0.201477C2.08573 0.201477 1.39574 0.271481 1.02574 0.611481C0.78574 0.851481 0.675736 1.15149 1.18574 1.15149Z"
				fill="black" transform="translate(4.82 169.2)" />
			<path
				d="M0.705739 0.631502C12.6957 0.581502 24.6657 1.1415 36.5657 2.6115C47.4157 3.9515 58.2157 5.93152 68.9157 8.16152C74.0357 9.23152 79.6957 10.4415 83.9357 13.6715C84.2557 13.9115 85.5257 13.3415 85.2957 13.1715C81.6757 10.4115 76.9857 9.17151 72.6257 8.15151C67.6857 7.00151 62.6657 6.1515 57.6857 5.2115C46.1757 3.0415 34.5757 1.39151 22.8957 0.621507C15.8257 0.151507 8.73573 -0.00849904 1.64573 0.021501C1.32573 0.031501 0.00573862 0.641502 0.705739 0.631502Z"
				fill="black" transform="translate(6.5 198.02)" />
			<path
				d="M6.56573 1.01149C6.80573 2.49149 6.68574 4.17149 6.60574 5.73149C6.31574 11.4615 5.39574 17.1615 4.35574 22.7915C3.31574 28.3915 2.07573 33.9515 0.725732 39.4815C0.565732 40.1515 2.04574 39.9715 2.18574 39.3615C4.27574 30.7515 6.16574 22.0515 7.32574 13.2515C7.80574 9.58148 8.24573 5.82148 8.11573 2.11148C8.09573 1.62148 8.08573 1.11149 8.00573 0.621486C7.90573 -0.0185142 6.45573 0.341485 6.56573 1.01149Z"
				fill="black" transform="translate(113.71 91.29)" />
			<path
				d="M4.84575 0.601499C5.79575 2.4815 6.28574 4.7115 6.40574 6.8015C6.68574 11.7115 4.37577 15.9515 0.395765 18.7515C-0.184235 19.1615 0.685758 19.4515 1.07576 19.1715C4.25576 16.9315 6.65576 13.7715 7.29576 9.8715C7.73576 7.2115 7.39575 4.43149 6.53575 1.89149C6.35575 1.35149 6.15577 0.81149 5.89577 0.31149C5.68577 -0.10851 4.64575 0.211499 4.84575 0.601499Z"
				fill="black" transform="translate(216.2 111.11)" />
			<path
				d="M0.345733 0.921478C17.5957 5.96148 35.7757 9.11148 53.7957 8.22148C58.9557 7.96148 64.0957 7.33148 69.1457 6.26148C69.7357 6.13148 69.5457 5.46148 68.9657 5.59148C51.1557 9.38148 32.4157 7.62148 14.7657 3.81148C10.0957 2.80148 5.46574 1.61148 0.885742 0.271476C0.455742 0.151476 -0.224267 0.761478 0.345733 0.921478Z"
				fill="black" transform="translate(44.13 0.26)" />
		</g>
	</g>
</svg>