<svg width="378" height="263" viewBox="0 0 378 263" fill="none" xmlns="http://www.w3.org/2000/svg">
<g clip-path="url(#clip0)">
<path d="M175.25 170.86C182.34 173.62 190.31 177.24 198.75 182C208.25 187.37 216.23 193 222.75 198.2C205.55 198.99 188.34 199.79 171.14 200.58C171.14 207.39 171.14 214.19 171.14 221C171.14 229.14 171.14 237.28 171.14 245.42C159.11 235.21 147.08 225.01 135.06 214.8L106.25 246.44L93.07 200.58L40.34 215.01L60.95 175.47L5.59 149.93C22.6 143.51 42.76 137.42 65.77 133.24C76.85 131.22 87.38 129.87 97.25 129" fill="#FFEC00"/>
<path d="M175.5 170.69C189.29 176.08 202.43 183.08 214.53 191.6C217.55 193.73 220.51 195.95 223.4 198.25C223.59 198.4 223.34 198.49 223.21 198.5C210.8 199.07 198.4 199.64 185.99 200.22C182.85 200.37 179.7 200.51 176.56 200.66C175.73 200.7 174.91 200.74 174.08 200.77C173.63 200.79 172.42 200.6 172.09 200.86C171.61 201.24 171.85 202.74 171.85 203.27C171.85 204.1 171.85 204.93 171.85 205.76C171.85 211.99 171.85 218.21 171.85 224.44C171.85 231.5 171.85 238.56 171.85 245.62C171.85 245.98 170.59 245.47 170.47 245.37C158.44 235.16 146.41 224.96 134.39 214.75C134.84 214.85 135.28 214.95 135.73 215.05C132.5 218.6 129.27 222.14 126.04 225.69C120.86 231.38 115.67 237.08 110.49 242.77C109.3 244.07 108.11 245.38 106.93 246.68C106.72 246.91 105.62 246.59 105.53 246.31C104.04 241.14 102.56 235.98 101.07 230.81C98.7 222.58 96.34 214.34 93.97 206.11C93.43 204.22 92.89 202.34 92.34 200.45C92.78 200.59 93.21 200.72 93.65 200.86C87.71 202.49 81.77 204.11 75.83 205.74C66.36 208.33 56.9 210.92 47.43 213.51C45.26 214.1 43.09 214.7 40.92 215.29C40.74 215.34 39.44 215.12 39.6 214.81C41.92 210.36 44.24 205.91 46.56 201.46C50.26 194.36 53.96 187.27 57.66 180.17C58.51 178.53 59.36 176.9 60.22 175.26C60.32 175.36 60.42 175.45 60.53 175.55C54.28 172.67 48.03 169.78 41.78 166.9C31.86 162.32 21.94 157.75 12.02 153.17C9.72999 152.12 7.45 151.06 5.16 150.01C5.01 149.94 4.69001 149.74 4.98001 149.63C27.84 141.02 51.58 134.81 75.74 131.18C82.72 130.13 89.73 129.31 96.77 128.68C97.09 128.65 98.42 129.21 97.71 129.28C72.57 131.51 47.69 136.49 23.63 144.13C17.76 146 11.94 148.02 6.17999 150.19C6.11999 150.06 6.06 149.94 6 149.81C12.25 152.69 18.5 155.58 24.75 158.46C34.67 163.04 44.59 167.61 54.51 172.19C56.8 173.24 59.08 174.3 61.37 175.35C61.43 175.38 61.74 175.52 61.68 175.64C59.36 180.09 57.04 184.54 54.72 188.99C51.02 196.09 47.32 203.18 43.62 210.28C42.77 211.92 41.92 213.55 41.06 215.19C40.62 215.03 40.18 214.87 39.74 214.71C45.68 213.08 51.62 211.46 57.56 209.83C67.03 207.24 76.49 204.65 85.96 202.06C88.13 201.47 90.3 200.87 92.47 200.28C92.75 200.2 93.68 200.34 93.78 200.69C95.27 205.86 96.75 211.02 98.24 216.19C100.61 224.42 102.97 232.66 105.34 240.89C105.88 242.78 106.42 244.66 106.97 246.55C106.5 246.43 106.04 246.3 105.57 246.18C108.8 242.63 112.03 239.09 115.26 235.54C120.44 229.85 125.63 224.15 130.81 218.46C132 217.16 133.19 215.85 134.37 214.55C134.62 214.28 135.49 214.67 135.71 214.85C147.74 225.06 159.77 235.26 171.79 245.47C171.33 245.39 170.87 245.31 170.41 245.22C170.41 230.27 170.41 215.33 170.41 200.38C170.41 200.29 170.63 200.28 170.67 200.28C187.87 199.49 205.08 198.69 222.28 197.9C222.22 197.98 222.16 198.06 222.09 198.15C207.85 186.82 191.95 177.65 174.99 171.03C174.04 170.65 174.94 170.47 175.5 170.69Z" fill="black"/>
<path d="M140.95 259.46L153.89 253.39L136.44 233.41C137.53 235.72 141.3 257.28 140.95 259.46Z" fill="#FFEC00"/>
<path d="M140.54 258.97C144.85 256.95 149.17 254.92 153.48 252.9C153.42 253.14 153.35 253.37 153.29 253.61C148.21 247.79 143.12 241.97 138.04 236.15C137.31 235.31 136.58 234.47 135.84 233.64C136.27 233.54 136.71 233.44 137.14 233.34C137.6 234.35 137.8 235.52 138.04 236.6C138.49 238.57 138.87 240.56 139.25 242.55C140.07 246.94 140.84 251.36 141.41 255.8C141.57 257.04 141.85 258.42 141.68 259.68C141.59 260.35 140.14 259.99 140.23 259.29C140.36 258.33 140.11 257.08 139.98 256.09C139.74 254.16 139.45 252.24 139.14 250.33C138.45 246.04 137.7 241.74 136.78 237.49C136.5 236.19 136.3 234.75 135.74 233.53C135.39 232.76 136.72 232.86 137.04 233.23C142.12 239.05 147.21 244.87 152.29 250.69C153.02 251.53 153.75 252.37 154.49 253.2C154.73 253.47 154.6 253.77 154.3 253.91C149.99 255.93 145.67 257.96 141.36 259.98C140.76 260.24 139.7 259.36 140.54 258.97Z" fill="black"/>
<path d="M18.42 188.13L22.5 198.2L38.37 185.77C36.58 186.5 20.06 188.48 18.42 188.13Z" fill="#FFEC00"/>
<path d="M19.11 188.08C20.47 191.44 21.83 194.79 23.19 198.15C22.77 198.04 22.36 197.93 21.94 197.81C26.57 194.18 31.2 190.55 35.84 186.93C36.5 186.41 37.16 185.9 37.81 185.38C38.14 185.65 38.48 185.93 38.81 186.2C38 186.51 37.08 186.61 36.23 186.76C34.69 187.02 33.15 187.24 31.61 187.44C28.23 187.89 24.83 188.29 21.43 188.54C20.41 188.61 19.33 188.75 18.32 188.56C17.42 188.39 17.66 187.54 18.55 187.7C18.31 187.65 18.79 187.7 18.83 187.7C19.12 187.71 19.41 187.69 19.7 187.68C20.46 187.65 21.23 187.59 21.99 187.52C24.06 187.35 26.13 187.12 28.2 186.87C30.27 186.62 32.33 186.35 34.39 186.04C35.55 185.86 36.85 185.76 37.96 185.33C38.38 185.17 39.56 185.68 38.96 186.15C34.33 189.78 29.7 193.41 25.06 197.03C24.4 197.55 23.74 198.06 23.09 198.58C22.78 198.82 21.99 198.61 21.84 198.24C20.48 194.88 19.12 191.53 17.76 188.17C17.45 187.47 18.9 187.57 19.11 188.08Z" fill="black"/>
<path d="M254.63 123.44L247.67 103.49L218.29 124.31C221.67 123.22 251.74 122.48 254.63 123.44Z" fill="#FFEC00"/>
<path d="M253.92 123.3C251.6 116.65 249.28 110 246.96 103.35C247.43 103.47 247.89 103.6 248.36 103.72C239.79 109.79 231.23 115.86 222.66 121.93C221.43 122.8 220.21 123.67 218.98 124.53C218.55 124.36 218.12 124.19 217.7 124.02C219.21 123.56 220.92 123.54 222.48 123.42C225.31 123.21 228.15 123.07 230.99 122.97C237.13 122.74 243.29 122.59 249.43 122.76C251.21 122.81 253.15 122.75 254.87 123.28C255.86 123.59 254.92 123.72 254.38 123.56C254.71 123.66 254.21 123.54 254.08 123.53C253.74 123.49 253.4 123.46 253.07 123.44C252.08 123.37 251.08 123.34 250.09 123.31C247.35 123.24 244.62 123.25 241.88 123.28C236.03 123.35 230.17 123.51 224.34 123.91C222.57 124.03 220.61 124.03 218.9 124.55C218.67 124.62 217.4 124.2 217.62 124.04C226.19 117.97 234.75 111.9 243.32 105.83C244.55 104.96 245.77 104.09 247 103.23C247.24 103.06 248.3 103.31 248.4 103.6C250.72 110.25 253.04 116.9 255.36 123.55C255.42 123.79 254.04 123.66 253.92 123.3Z" fill="black"/>
<path d="M227.74 98.51L215.84 92.91L213.44 109.88C214.42 108.32 226.25 98.94 227.74 98.51Z" fill="#FFEC00"/>
<path d="M227.43 98.91C223.46 97.04 219.49 95.17 215.53 93.31C215.88 93.24 216.22 93.17 216.57 93.1C215.87 98.05 215.17 103.01 214.47 107.96C214.37 108.66 214.27 109.37 214.17 110.07C213.71 109.9 213.24 109.73 212.78 109.56C213.22 108.9 213.9 108.37 214.48 107.84C215.53 106.9 216.61 105.99 217.69 105.1C220.06 103.15 222.48 101.24 224.98 99.47C225.69 98.97 226.48 98.31 227.32 98.04C227.91 97.85 229.03 98.71 228.17 98.98C227.7 99.13 226.91 99.72 226.38 100.09C225.26 100.87 224.16 101.7 223.07 102.53C220.7 104.35 218.36 106.22 216.11 108.2C215.43 108.8 214.61 109.42 214.1 110.19C213.77 110.68 212.63 110.27 212.71 109.68C213.41 104.73 214.11 99.77 214.81 94.82C214.91 94.12 215.01 93.41 215.11 92.71C215.17 92.28 215.91 92.39 216.15 92.5C220.12 94.37 224.09 96.24 228.05 98.1C228.96 98.52 228.15 99.25 227.43 98.91Z" fill="black"/>
<path d="M25.28 110.9L38.39 94.52L59.01 123.71C56.21 121.59 28.31 110.96 25.28 110.9Z" fill="#FFEC00"/>
<path d="M24.6 110.64C28.97 105.18 33.34 99.72 37.71 94.26C37.93 93.98 38.88 94.31 39.05 94.55C45.08 103.09 51.12 111.63 57.15 120.17C57.99 121.36 58.83 122.55 59.68 123.75C60.03 124.25 58.62 123.9 58.45 123.77C57.28 122.9 55.78 122.36 54.46 121.78C52.01 120.7 49.52 119.69 47.03 118.71C41.56 116.54 36.05 114.45 30.46 112.6C28.98 112.11 26.97 111.28 25.58 111.23C25.14 111.21 24.01 110.53 24.97 110.57C26.45 110.62 27.99 111.22 29.39 111.67C32.01 112.5 34.59 113.41 37.17 114.35C42.97 116.46 48.76 118.67 54.42 121.13C56.13 121.87 58.06 122.55 59.57 123.67C59.16 123.68 58.75 123.69 58.34 123.69C52.31 115.15 46.27 106.61 40.24 98.07C39.4 96.88 38.56 95.69 37.71 94.49C38.16 94.59 38.6 94.68 39.05 94.78C34.68 100.24 30.31 105.7 25.94 111.16C25.71 111.47 24.33 110.98 24.6 110.64Z" fill="black"/>
<path d="M52.84 77.06L67.66 73.88L63.81 116.17C63.52 112.4 54.48 79.94 52.84 77.06Z" fill="#FFEC00"/>
<path d="M52.25 76.78C57.19 75.72 62.13 74.66 67.07 73.6C67.31 73.55 68.43 73.69 68.39 74.07C67.27 86.43 66.14 98.78 65.02 111.14C64.86 112.88 64.7 114.62 64.54 116.36C64.52 116.63 63.12 116.33 63.09 115.97C62.94 114.24 62.42 112.5 62.01 110.82C61.27 107.8 60.48 104.79 59.67 101.78C57.92 95.31 56.12 88.86 54.11 82.47C53.54 80.65 53.07 78.61 52.14 76.92C52.05 76.75 53.37 76.82 53.57 77.18C54.36 78.61 54.78 80.33 55.28 81.88C56.23 84.84 57.11 87.82 57.97 90.8C59.85 97.3 61.66 103.82 63.29 110.39C63.77 112.33 64.39 114.35 64.56 116.35C64.08 116.22 63.59 116.09 63.11 115.96C64.23 103.6 65.36 91.25 66.48 78.89C66.64 77.15 66.8 75.41 66.96 73.67C67.4 73.83 67.84 73.98 68.28 74.14C63.34 75.2 58.4 76.26 53.46 77.32C53.11 77.4 51.86 76.86 52.25 76.78Z" fill="black"/>
<path d="M210.8 65.78C195 105.35 180.33 150.79 169.43 191.98C162.13 208.59 132.29 211.54 102.79 198.57C73.29 185.6 55.28 161.63 62.58 145.02C63.11 143.71 89.73 40.01 103.6 20.11" fill="url(#paint0_linear)"/>
<path d="M211.52 65.98C203.86 85.17 196.87 104.63 190.39 124.25C183.9 143.87 177.92 163.65 172.47 183.58C171.37 187.59 170.76 191.93 168.35 195.4C166.66 197.83 164.43 199.84 161.93 201.42C155.88 205.23 148.53 206.65 141.48 206.94C123.35 207.67 104.84 201.45 89.56 191.98C82.66 187.71 76.21 182.56 70.88 176.42C66.6 171.49 62.88 165.77 61.16 159.41C60.46 156.83 60.11 154.14 60.28 151.47C60.43 149.1 61.1 147.01 61.88 144.79C62.33 143.5 62.61 142.13 62.97 140.81C65.02 133.18 67.08 125.56 69.19 117.95C72.33 106.65 75.55 95.37 78.93 84.13C82.45 72.39 86.12 60.69 90.18 49.12C93.21 40.49 96.31 31.69 100.65 23.62C101.33 22.35 102.06 21.1 102.88 19.92C103.14 19.54 104.47 20.1 104.33 20.31C102.48 22.98 101.05 25.94 99.7 28.89C97.8 33.04 96.12 37.29 94.51 41.55C90.44 52.38 86.87 63.4 83.44 74.45C79.88 85.94 76.5 97.49 73.23 109.06C70.71 117.99 68.25 126.94 65.83 135.91C65.17 138.37 64.51 140.84 63.84 143.3C63.3 145.31 62.44 147.23 62.04 149.27C59.57 162.11 69.23 174.47 78.11 182.51C91.76 194.86 109.87 203.12 128.08 205.64C136.23 206.77 144.81 206.76 152.75 204.38C158.77 202.57 164.62 199.16 167.82 193.57C168.83 191.81 169.22 189.89 169.74 187.94C170.38 185.56 171.03 183.18 171.68 180.8C173.01 175.97 174.38 171.15 175.77 166.34C178.62 156.52 181.59 146.74 184.68 137C190.89 117.47 197.58 98.09 204.87 78.94C206.57 74.48 208.3 70.03 210.07 65.59C210.23 65.21 211.65 65.66 211.52 65.98Z" fill="black"/>
<path d="M201.07 93.68C185.38 100.89 166.77 98.88 150.68 94.15C134.39 89.36 118.68 81.5 107.09 68.86C100.47 61.63 95.22 53.07 92.35 43.68C92.24 43.32 93.66 43.5 93.79 43.91C98.75 60.14 110.71 73.99 125.17 82.62C132.08 86.75 139.6 89.97 147.23 92.5C155.47 95.23 164.07 97.09 172.75 97.57C181.99 98.09 191.42 96.97 199.89 93.08C200.24 92.91 201.56 93.45 201.07 93.68Z" fill="black"/>
<path d="M193.34 115.72C177.64 122.93 159.05 120.96 142.94 116.22C126.64 111.43 110.96 103.55 99.36 90.9C92.74 83.67 87.5 75.1 84.62 65.7C84.48 65.25 85.92 65.44 86.06 65.9C91.02 82.12 102.99 95.96 117.45 104.58C124.42 108.73 132 111.99 139.7 114.51C147.89 117.19 156.42 119.04 165.03 119.53C174.27 120.05 183.7 118.95 192.17 115.06C192.57 114.88 193.9 115.47 193.34 115.72Z" fill="black"/>
<path d="M176.76 167.94C160.98 175.18 142.51 172.9 126.47 167.76C110.36 162.6 94.78 154.53 83.44 141.75C77.15 134.67 72.19 126.39 69.41 117.31C69.25 116.78 70.71 116.97 70.86 117.48C75.71 133.34 87.28 146.87 101.27 155.52C108.07 159.73 115.52 163.06 123.04 165.76C131.11 168.65 139.55 170.73 148.11 171.42C157.46 172.18 167.04 171.16 175.62 167.22C176.06 167.02 177.38 167.66 176.76 167.94Z" fill="black"/>
<path d="M171.82 185.87C156.47 194.48 137.66 192.66 121.42 187.79C113.15 185.31 105.13 181.95 97.51 177.89C90.21 174 83.31 169.32 77.51 163.37C70.95 156.64 66.12 148.49 63.38 139.5C63.29 139.22 64.7 139.39 64.81 139.76C67.16 147.46 71.03 154.6 76.28 160.7C81.5 166.76 87.88 171.7 94.77 175.72C101.92 179.89 109.55 183.33 117.38 186.01C125.66 188.85 134.32 190.83 143.09 191.22C152.54 191.64 162.13 190.05 170.45 185.38C170.82 185.17 172 185.77 171.82 185.87Z" fill="black"/>
<path d="M191.15 159.49C206.67 170.04 225.56 179.92 239.65 187.02C269.72 202.18 302.65 210.59 334.77 220.16C341.29 222.1 348.15 223.89 355.01 223.03C358.52 222.58 362.01 221.2 364.47 218.65C366.93 216.1 368.21 212.29 367.23 208.89C364.68 199.99 350.24 194.99 342.99 190.96C335.32 186.7 327.47 182.76 319.53 179.05C302.76 171.21 285.54 164.35 268.13 158.06C263.78 156.49 225.4 143.55 201.49 136.16" fill="#8E79B2"/>
<path d="M191.72 159.41C203.15 167.17 215.23 173.94 227.45 180.36C239.39 186.64 251.45 192.54 264.03 197.43C277.49 202.66 291.28 207.02 305.11 211.14C311.91 213.16 318.73 215.13 325.55 217.12C332.52 219.16 339.54 221.73 346.78 222.62C353.33 223.43 361.64 222.64 365.35 216.32C366.83 213.8 367.29 210.76 366.26 207.99C365.45 205.83 363.96 203.99 362.27 202.44C358.5 198.97 353.76 196.65 349.19 194.42C344.09 191.94 339.16 189.19 334.12 186.58C320.93 179.74 307.34 173.68 293.57 168.1C283.77 164.13 273.88 160.32 263.87 156.89C245.49 150.61 227.04 144.51 208.52 138.66C206.15 137.91 203.78 137.17 201.41 136.44C200.57 136.18 200.71 135.58 201.57 135.85C221.49 142.01 241.29 148.59 261.04 155.28C284.23 163.14 307.08 172.35 329.02 183.23C334.92 186.16 340.61 189.47 346.51 192.38C351.07 194.63 355.72 196.72 359.94 199.59C363.65 202.11 367.74 205.71 368.24 210.46C368.88 216.6 363.81 221.27 358.31 222.79C351.49 224.67 344.09 223.1 337.45 221.24C330.3 219.24 323.2 217.06 316.07 214.98C302.07 210.9 288.09 206.76 274.34 201.9C260.92 197.16 247.89 191.59 235.2 185.12C222.85 178.83 210.61 172.26 198.85 164.91C196.06 163.17 193.31 161.38 190.59 159.53C189.95 159.13 191.4 159.2 191.72 159.41Z" fill="black"/>
<path d="M178.1 161.03C180.16 162.51 182.75 163.16 185.48 162.23C188.45 161.21 190.91 159.03 192.92 156.68C197.78 151 200.45 143.92 201.39 136.99C201.95 132.86 201.41 128.55 199.03 125.3C197.61 123.37 192.84 121.73 190.26 121.64" fill="#8E79B2"/>
<path d="M178.67 160.94C186.32 166.21 194.23 154.85 197.04 149.01C198.63 145.71 199.74 142.19 200.38 138.59C201.05 134.87 201.17 130.96 199.6 127.44C198.77 125.56 197.68 124.35 195.83 123.47C194.2 122.69 192.35 122.1 190.54 122C190.06 121.97 188.99 121.21 189.95 121.26C193.04 121.42 196.89 122.56 199.18 124.74C202.1 127.54 202.58 132.56 202.2 136.35C201.33 145.11 197.23 154.9 190.06 160.35C188.21 161.76 186 162.91 183.64 163.02C181.42 163.13 179.33 162.36 177.51 161.11C176.89 160.67 178.34 160.71 178.67 160.94Z" fill="black"/>
<path d="M260.16 155.14C262.58 160.28 262.77 166.56 262.18 172.12C261.57 177.83 259.83 184.54 255.09 188.26C252.59 190.22 249.53 190.89 246.41 190.56C245.7 190.49 245.21 189.65 246.21 189.76C259.25 191.14 261.65 172.72 260.79 163.46C260.53 160.65 260.02 157.74 258.81 155.17C258.51 154.54 259.96 154.7 260.16 155.14Z" fill="black"/>
<path d="M334.02 186.44C335.19 192.33 333.43 198.49 330.46 203.59C327.42 208.81 322.77 213.33 316.94 215.21C316.45 215.37 315.24 214.65 316.06 214.38C321.71 212.56 326.18 208.04 329.12 203C332.01 198.04 333.7 191.99 332.57 186.26C332.45 185.69 333.91 185.91 334.02 186.44Z" fill="black"/>
<path d="M143.306 74.6745C113.798 61.7046 95.7958 37.7258 103.096 21.1163C110.397 4.50677 140.236 1.55627 169.744 14.5262C199.252 27.4961 217.254 51.4749 209.953 68.0844C202.653 84.6939 172.814 87.6444 143.306 74.6745Z" fill="#EFD4E7"/>
<path d="M103.83 21.32C100.97 27.94 102.29 35.27 105.32 41.58C109.28 49.81 115.88 56.67 123.01 62.25C132.14 69.39 142.7 74.79 153.73 78.29C164.39 81.67 175.96 83.47 187.11 81.81C195.05 80.63 203.59 77.36 208.01 70.23C211.75 64.2 211.42 56.89 208.96 50.45C205.77 42.11 199.61 35.04 192.9 29.3C184.37 21.99 174.38 16.41 163.87 12.5C153.09 8.49001 141.34 6.10001 129.8 6.98001C121.46 7.62001 112.32 10.1 106.71 16.72C105.54 18.11 104.58 19.66 103.83 21.32C103.64 21.75 102.22 21.28 102.38 20.93C105.83 13.23 113.69 9.12001 121.59 7.36001C132.21 4.99001 143.5 6.13001 153.95 8.77001C165.73 11.75 177.08 16.87 187.07 23.8C195.06 29.34 202.47 36.23 207.46 44.66C211.19 50.97 213.64 58.68 211.53 65.96C209.25 73.8 202.24 78.68 194.76 81C184.66 84.12 173.54 83.52 163.3 81.42C151.32 78.96 139.74 74.23 129.41 67.69C120.88 62.29 112.89 55.51 107.2 47.09C103.02 40.9 99.81 33.29 101 25.68C101.26 24.04 101.72 22.46 102.38 20.94C102.57 20.51 103.99 20.97 103.83 21.32Z" fill="black"/>
</g>
<defs>
<linearGradient id="paint0_linear" x1="181.762" y1="141.584" x2="19.0115" y2="74.8343" gradientUnits="userSpaceOnUse">
<stop stop-color="#8E79B2"/>
<stop offset="0.4497" stop-color="#D9C7EF"/>
<stop offset="1" stop-color="white"/>
</linearGradient>
<clipPath id="clip0">
<rect width="377.25" height="262.5" fill="white" transform="matrix(-1 0 0 1 377.25 0)"/>
</clipPath>
</defs>
</svg>
