<svg width="2818" height="1000" viewBox="0 0 2818 1000" fill="none" xmlns="http://www.w3.org/2000/svg">
<g clip-path="url(#clip0)">
<path d="M852.8 146.5C758.4 52 633 0 499.6 0C224.1 0 0 224.3 0 500C0 775.7 224.1 1000 499.6 1000C633 1000 758.5 948 852.8 853.5C947.2 759 999.1 633.5 999.1 500C999.1 366.5 947.2 240.9 852.8 146.5ZM499.6 965.4C243.2 965.4 34.6 756.6 34.6 500C34.6 243.4 243.2 34.6 499.6 34.6C756 34.6 964.6 243.4 964.6 500C964.6 756.6 756 965.4 499.6 965.4Z" fill="white"/>
<path fill-rule="evenodd" clip-rule="evenodd" d="M478.339 272.979L576.344 174.974L600.846 199.475L573.894 226.427L745.403 397.936L772.355 370.984L796.856 395.486L600.846 591.496L576.344 566.994L603.296 540.043L529.792 466.539L368.672 627.66L405.424 664.412L380.922 688.913L344.17 652.161L321.549 674.782L358.301 711.534L333.8 736.036L297.048 699.284L297.03 699.301L272.529 674.8L505.291 442.038L431.787 368.534L404.836 395.486L380.334 370.984L478.339 272.979ZM549.393 250.928L720.902 422.437L627.797 515.542L456.288 344.033L502.841 297.48L549.393 250.928Z" fill="white"/>
<path d="M1306.71 438.521C1288.46 438.521 1270.45 435.606 1252.95 430.019C1235.45 424.432 1220.45 416.173 1207.95 405.728L1228.7 371.721C1241.95 380.951 1254.95 387.753 1267.7 392.611C1280.21 397.226 1292.96 399.655 1305.46 399.655C1316.46 399.655 1325.21 397.712 1331.71 393.583C1338.21 389.453 1341.21 383.866 1341.21 376.093C1341.21 368.563 1337.46 362.976 1329.96 359.575C1322.46 356.175 1310.21 352.045 1293.46 347.43C1279.21 343.544 1267.2 339.9 1257.2 336.499C1247.2 333.098 1239.2 328.969 1232.95 324.597C1226.95 320.224 1222.45 315.123 1219.7 309.293C1216.95 303.464 1215.45 296.662 1215.45 288.403C1215.45 277.715 1217.7 267.999 1221.95 259.254C1226.2 250.753 1232.2 243.222 1239.95 237.15C1247.7 231.077 1256.7 226.462 1267.2 223.304C1277.71 220.146 1288.96 218.446 1301.21 218.446C1317.46 218.446 1332.96 220.632 1347.21 225.247C1361.46 229.862 1374.71 237.15 1386.46 247.595L1363.96 280.387C1352.96 272.371 1342.21 266.299 1331.71 262.655C1321.21 258.769 1310.96 257.068 1300.71 257.068C1291.21 257.068 1283.46 259.011 1276.96 262.655C1270.45 266.542 1267.45 272.614 1267.45 280.873C1267.45 284.76 1268.2 287.675 1269.7 290.104C1271.2 292.533 1273.7 294.719 1276.96 296.662C1280.21 298.605 1284.71 300.306 1289.96 302.006C1295.46 303.707 1302.21 305.65 1310.21 307.35C1325.21 311.237 1337.96 314.88 1348.71 318.767C1359.46 322.653 1368.21 326.783 1374.96 331.641C1381.71 336.499 1386.71 342.086 1389.96 348.402C1393.21 354.717 1394.71 362.247 1394.71 371.235C1394.71 391.882 1386.71 408.4 1370.96 420.302C1355.46 432.691 1333.96 438.521 1306.71 438.521Z" fill="white"/>
<path d="M1664.21 342.817H1489.96C1492.96 358.606 1500.96 371.238 1513.96 380.711C1526.96 389.942 1542.96 394.557 1561.96 394.557C1586.46 394.557 1606.46 386.784 1622.21 370.995L1649.96 402.087C1639.96 413.747 1627.46 422.491 1612.21 428.321C1596.96 434.151 1579.71 437.309 1560.71 437.309C1536.21 437.309 1514.71 432.693 1496.21 423.22C1477.71 413.747 1463.21 400.63 1453.21 383.869C1442.96 367.108 1437.96 347.919 1437.96 326.786C1437.96 305.653 1442.96 286.949 1452.71 269.945C1462.46 253.184 1476.21 240.067 1493.71 230.594C1511.21 221.12 1530.96 216.505 1552.71 216.505C1574.46 216.505 1593.71 221.12 1610.71 230.351C1627.71 239.582 1640.96 252.699 1650.71 269.459C1660.21 286.22 1664.96 305.895 1664.96 327.757C1664.96 331.401 1664.71 336.259 1664.21 342.817ZM1510.46 271.16C1498.96 280.633 1491.96 293.507 1489.46 309.296H1615.46C1613.21 293.75 1606.46 281.119 1594.96 271.402C1583.46 261.686 1569.46 256.828 1552.46 256.828C1535.96 256.585 1521.96 261.443 1510.46 271.16Z" fill="white"/>
<path d="M1771.22 423.22C1752.96 413.747 1738.71 400.63 1728.46 383.869C1718.21 367.108 1712.96 347.919 1712.96 326.786C1712.96 305.41 1718.21 286.463 1728.46 269.702C1738.71 252.941 1752.96 239.824 1771.22 230.594C1789.47 221.12 1810.22 216.505 1833.47 216.505C1855.47 216.505 1874.47 220.878 1890.97 229.379C1907.47 238.124 1919.97 250.512 1928.22 266.544L1888.22 289.135C1881.72 279.176 1873.97 271.645 1864.22 266.787C1854.72 261.686 1844.22 259.257 1832.72 259.257C1813.22 259.257 1797.22 265.33 1784.47 277.718C1771.72 289.864 1765.22 306.381 1765.22 326.786C1765.22 347.19 1771.47 363.708 1784.22 375.853C1796.72 388.241 1812.97 394.314 1832.72 394.314C1843.97 394.314 1854.47 391.885 1864.22 386.784C1873.72 381.683 1881.72 374.396 1888.22 364.436L1928.22 387.027C1919.72 403.302 1906.97 415.69 1890.47 424.435C1873.97 433.179 1854.97 437.552 1833.22 437.552C1809.97 437.309 1789.47 432.693 1771.22 423.22Z" fill="white"/>
<path d="M2117.73 216.262V264.357C2113.23 263.629 2109.23 263.143 2105.73 263.143C2085.48 263.143 2069.73 268.973 2058.23 280.389C2046.73 291.806 2041.23 308.324 2041.23 329.943V434.636H1989.23V218.691H2038.73V250.269C2053.73 227.678 2079.98 216.262 2117.73 216.262Z" fill="white"/>
<path d="M2380.74 342.817H2206.48C2209.48 358.606 2217.48 371.238 2230.48 380.711C2243.48 389.942 2259.48 394.557 2278.48 394.557C2302.99 394.557 2322.99 386.784 2338.74 370.995L2366.49 402.087C2356.49 413.747 2343.99 422.491 2328.74 428.321C2313.49 434.151 2296.24 437.309 2277.23 437.309C2252.73 437.309 2231.23 432.693 2212.73 423.22C2194.23 413.747 2179.73 400.63 2169.73 383.869C2159.48 367.108 2154.48 347.919 2154.48 326.786C2154.48 305.653 2159.48 286.949 2169.23 269.945C2178.98 253.184 2192.73 240.067 2210.23 230.594C2227.73 221.12 2247.48 216.505 2269.23 216.505C2290.99 216.505 2310.24 221.12 2327.24 230.351C2344.24 239.582 2357.49 252.699 2367.24 269.459C2376.74 286.22 2381.49 305.895 2381.49 327.757C2381.74 331.401 2381.49 336.259 2380.74 342.817ZM2227.23 271.16C2215.73 280.633 2208.73 293.507 2206.23 309.296H2332.24C2329.99 293.75 2323.24 281.119 2311.74 271.402C2300.24 261.686 2286.23 256.828 2269.23 256.828C2252.73 256.585 2238.73 261.443 2227.23 271.16Z" fill="white"/>
<path d="M2581.49 422.734C2575.49 427.592 2567.99 431.236 2559.24 433.665C2550.49 436.094 2541.24 437.309 2531.49 437.309C2506.99 437.309 2488.24 430.993 2474.99 418.605C2461.74 406.216 2454.99 388.241 2454.99 364.436V260.471H2418.49V220.392H2454.99V171.081H2506.99V220.392H2566.49V260.714H2506.99V363.464C2506.99 373.909 2509.74 381.925 2514.99 387.512C2520.24 393.099 2527.99 395.771 2537.99 395.771C2549.74 395.771 2559.24 392.856 2566.99 386.784L2581.49 422.734Z" fill="white"/>
<path d="M1208.01 708.349C1208.01 695.456 1211.88 684.31 1219.63 674.908C1227.37 665.238 1238.01 657.718 1251.56 652.345C1265.38 646.974 1281.27 644.287 1299.24 644.287C1309.75 644.287 1320.67 645.228 1332 647.108C1343.34 648.719 1353.43 651.003 1362.27 653.957V636.229C1362.27 618.502 1356.88 604.401 1346.1 593.925C1335.32 583.45 1320.39 578.212 1301.32 578.212C1289.98 578.212 1278.65 580.361 1267.31 584.658C1255.98 588.688 1244.23 594.731 1232.07 602.789L1221.28 583.45C1235.38 574.049 1249.21 567.065 1262.75 562.499C1276.3 557.664 1290.12 555.247 1304.22 555.247C1330.76 555.247 1351.77 562.633 1367.25 577.406C1382.73 592.179 1390.47 612.593 1390.47 638.647V735.746C1390.47 742.999 1393.93 746.76 1400.84 747.028V768.784C1394.76 769.59 1390.47 769.859 1387.98 769.59C1381.07 769.322 1375.82 767.173 1372.23 763.144C1368.63 759.115 1366.7 754.818 1366.42 750.251L1366.01 734.94C1356.33 747.028 1343.75 756.43 1328.27 763.144C1312.79 769.59 1297.03 772.813 1281 772.813C1266.9 772.813 1254.32 769.993 1243.26 764.352C1232.2 758.444 1223.5 750.655 1217.14 740.984C1211.06 731.047 1208.01 720.168 1208.01 708.349ZM1352.74 724.465C1359.1 717.213 1362.27 710.499 1362.27 704.32V673.699C1343.2 666.447 1323.29 662.821 1302.56 662.821C1282.38 662.821 1266.07 666.716 1253.63 674.505C1241.19 682.296 1234.97 692.905 1234.97 706.334C1234.97 717.885 1239.53 728.36 1248.65 737.761C1258.05 747.163 1271.05 751.862 1287.63 751.862C1301.18 751.862 1313.76 749.311 1325.37 744.207C1337.26 739.105 1346.38 732.523 1352.74 724.465Z" fill="white"/>
<path d="M1440.64 682.162V558.874H1468.84V677.327C1468.84 724.869 1485.57 748.641 1519.02 748.641C1535.6 748.641 1551.09 743.403 1565.46 732.927C1580.11 722.452 1590.62 708.486 1596.98 691.025V558.874H1625.17V735.748C1625.17 743 1628.49 746.761 1635.13 747.029V768.786C1631.81 769.324 1629.18 769.591 1627.25 769.591C1625.59 769.591 1623.79 769.591 1621.86 769.591C1616.05 769.055 1611.08 766.906 1606.93 763.145C1603.06 759.385 1601.12 754.819 1601.12 749.446L1600.29 721.243C1590.9 737.628 1578.04 750.387 1561.73 759.519C1545.7 768.383 1528.28 772.815 1509.48 772.815C1463.59 772.815 1440.64 742.597 1440.64 682.162Z" fill="white"/>
<path d="M1778.84 772.813C1757.83 772.813 1739.17 767.845 1722.86 757.906C1706.55 747.7 1693.7 734.404 1684.3 718.019C1674.9 701.366 1670.2 683.101 1670.2 663.224C1670.2 643.348 1674.76 625.351 1683.88 609.236C1693 592.851 1705.72 579.824 1722.03 570.154C1738.34 560.216 1757.14 555.247 1778.43 555.247C1798.61 555.247 1816.3 559.813 1831.51 568.945C1846.99 577.809 1858.6 589.896 1866.34 605.207L1838.97 613.668C1832.89 602.923 1824.32 594.597 1813.26 588.688C1802.48 582.51 1790.45 579.421 1777.18 579.421C1762.53 579.421 1749.26 583.047 1737.37 590.299C1725.76 597.551 1716.36 607.624 1709.18 620.516C1702.27 633.141 1698.81 647.377 1698.81 663.224C1698.81 679.072 1702.4 693.442 1709.59 706.334C1716.78 719.227 1726.32 729.569 1738.2 737.358C1750.09 744.879 1763.22 748.639 1777.6 748.639C1787 748.639 1796.12 747.028 1804.97 743.804C1813.81 740.581 1821.42 736.285 1827.77 730.912C1834.13 725.271 1838.42 719.227 1840.63 712.781L1868.41 720.839C1864.54 730.778 1858.18 739.777 1849.34 747.833C1840.49 755.624 1829.99 761.801 1817.82 766.367C1805.66 770.665 1792.67 772.813 1778.84 772.813Z" fill="white"/>
<path d="M2043.08 757.753C2037.58 762.611 2030.58 766.255 2022.58 768.927C2014.33 771.599 2005.83 772.813 1997.08 772.813C1976.58 772.813 1960.83 767.469 1949.58 756.538C1938.58 745.851 1932.83 730.547 1932.83 710.872V582.373H1893.83V558.082H1932.83V511.687H1962.33V558.082H2028.83V582.373H1962.33V709.414C1962.33 722.045 1965.58 731.762 1972.08 738.32C1978.58 744.879 1988.08 748.28 2000.08 748.28C2006.08 748.28 2012.08 747.308 2017.83 745.365C2023.58 743.421 2028.33 740.749 2032.58 737.349L2043.08 757.753Z" fill="white"/>
<path d="M2087.84 551.82L2087.84 524.693H2116.04V551.82H2087.84ZM2087.84 772.813V572.686H2116.04V772.813H2087.84Z" fill="white"/>
<path d="M2264.28 772.813C2243.55 772.813 2225.02 767.845 2208.71 757.906C2192.68 747.969 2180.1 734.807 2170.98 718.422C2161.86 701.769 2157.29 683.772 2157.29 664.433C2157.29 644.826 2161.86 626.829 2170.98 610.444C2180.38 593.791 2193.09 580.495 2209.13 570.557C2225.44 560.35 2243.82 555.247 2264.28 555.247C2285.02 555.247 2303.4 560.35 2319.43 570.557C2335.74 580.495 2348.46 593.791 2357.58 610.444C2366.98 626.829 2371.68 644.826 2371.68 664.433C2371.68 683.772 2367.12 701.769 2358 718.422C2348.88 734.807 2336.16 747.969 2319.85 757.906C2303.81 767.845 2285.29 772.813 2264.28 772.813ZM2185.91 664.835C2185.91 680.415 2189.36 694.65 2196.27 707.543C2203.46 720.168 2213 730.241 2224.89 737.761C2236.78 745.013 2249.91 748.639 2264.28 748.639C2278.66 748.639 2291.79 744.879 2303.68 737.358C2315.56 729.838 2325.1 719.63 2332.29 706.737C2339.48 693.844 2343.07 679.609 2343.07 664.03C2343.07 648.452 2339.48 634.215 2332.29 621.322C2325.1 608.43 2315.56 598.223 2303.68 590.702C2291.79 583.181 2278.66 579.421 2264.28 579.421C2250.18 579.421 2237.19 583.315 2225.3 591.105C2213.41 598.626 2203.88 608.833 2196.69 621.725C2189.5 634.618 2185.91 648.988 2185.91 664.835Z" fill="white"/>
<path d="M2590.67 577.615C2606.92 593.161 2614.92 615.751 2614.92 645.386V768.784H2585.42V648.301C2585.42 626.197 2579.67 609.436 2568.42 597.776C2556.92 586.117 2540.92 580.287 2519.67 580.287C2496.17 580.287 2477.42 587.088 2463.67 600.691C2449.92 614.294 2443.17 632.998 2443.17 657.046V768.541H2413.66V555.996H2441.92V595.104C2449.92 582.23 2461.17 572.028 2475.42 564.984C2489.67 557.939 2506.17 554.296 2525.17 554.296C2552.67 554.296 2574.42 562.069 2590.67 577.615Z" fill="white"/>
<path d="M2735.06 772.813C2717.37 772.813 2700.91 769.993 2685.72 764.352C2670.78 758.444 2657.65 749.848 2646.32 738.567L2657.93 719.227C2670.09 730.241 2682.25 738.299 2694.43 743.401C2706.87 748.236 2719.99 750.654 2733.82 750.654C2750.41 750.654 2763.94 747.431 2774.46 740.984C2785.24 734.27 2790.63 724.734 2790.63 712.378C2790.63 704.052 2787.99 697.74 2782.75 693.442C2777.78 688.876 2770.44 685.25 2760.77 682.563C2751.37 679.878 2740.04 676.789 2726.77 673.296C2711.84 669.267 2699.25 665.105 2689.03 660.806C2679.08 656.241 2671.47 650.6 2666.22 643.884C2661.25 636.901 2658.76 627.904 2658.76 616.89C2658.76 603.461 2662.21 592.179 2669.13 583.047C2676.31 573.914 2685.98 567.065 2698.16 562.499C2710.6 557.664 2724.42 555.247 2739.63 555.247C2756.21 555.247 2770.86 557.798 2783.58 562.902C2796.29 568.005 2806.66 575.123 2814.68 584.256L2801 602.789C2793.53 594.194 2784.26 587.882 2773.21 583.853C2762.43 579.555 2750.67 577.406 2737.97 577.406C2729.11 577.406 2720.68 578.615 2712.67 581.032C2704.64 583.181 2698.01 586.942 2692.77 592.314C2687.79 597.417 2685.3 604.535 2685.3 613.668C2685.3 624.948 2689.58 632.738 2698.16 637.035C2706.72 641.333 2719.72 645.899 2737.14 650.734C2753.44 655.032 2767.68 659.33 2779.85 663.627C2792.01 667.925 2801.41 673.699 2808.05 680.952C2814.68 687.936 2818 697.74 2818 710.363C2818 729.972 2810.39 745.282 2795.19 756.294C2779.98 767.308 2759.94 772.813 2735.06 772.813Z" fill="white"/>
</g>
<defs>
<clipPath id="clip0">
<rect width="2818" height="1000" fill="white"/>
</clipPath>
</defs>
</svg>
