<svg width="25" height="25" viewBox="0 0 25 25" fill="none" xmlns="http://www.w3.org/2000/svg">
<circle cx="12.3944" cy="12.101" r="10" fill="#FCF9D3"/>
<path fill-rule="evenodd" clip-rule="evenodd" d="M12.3944 21.501C17.5859 21.501 21.7944 17.2925 21.7944 12.101C21.7944 6.90954 17.5859 2.70101 12.3944 2.70101C7.20293 2.70101 2.99441 6.90954 2.99441 12.101C2.99441 17.2925 7.20293 21.501 12.3944 21.501ZM12.3944 22.101C17.9173 22.101 22.3944 17.6239 22.3944 12.101C22.3944 6.57817 17.9173 2.10101 12.3944 2.10101C6.87156 2.10101 2.39441 6.57817 2.39441 12.101C2.39441 17.6239 6.87156 22.101 12.3944 22.101Z" fill="#1B1B1B"/>
<path d="M17.8475 11.2829C17.7155 10.4159 17.2859 9.51152 16.7 8.86156C15.9982 8.08536 15.1408 7.72318 14.2833 7.84002C12.1993 8.12205 11.7591 9.92974 11.3688 11.5209L11.3675 11.525L11.364 11.5413C11.0169 12.9504 10.7173 14.167 9.44422 14.3373C8.60441 14.4534 7.95947 13.3256 7.83443 12.5049L7.81682 12.3893L7.81489 12.3896C7.6821 11.298 7.95046 10.2518 8.61136 9.2719L8.5421 10.5382L9.10232 10.3207L9.26647 7.78827L6.89441 8.89677L6.91449 9.45553L8.10535 8.88772C7.33236 10.0246 7.01583 11.2852 7.19578 12.5568L7.20575 12.6223C7.34518 13.5374 7.74323 14.4939 8.27191 15.1822C8.9276 16.0443 9.76038 16.4772 10.6149 16.4062C11.5532 16.3283 12.2615 15.905 12.781 15.1102C13.2299 14.4209 13.4712 13.572 13.7047 12.7499L13.7057 12.7438C14.1195 11.293 14.4763 10.0381 15.7566 9.92784C16.2457 9.89077 16.59 10.1971 16.7917 10.4601C17.0183 10.7567 17.1919 11.1718 17.2524 11.5687C17.2597 11.6169 17.2649 11.6634 17.27 11.7099C17.3546 12.7182 16.755 14.0474 16.1184 14.9408L16.1893 13.6467L15.6291 13.8641L15.465 16.3966L17.8367 15.2861L17.8167 14.7274L16.6477 15.284C17.4769 14.1108 18.0693 12.7386 17.8475 11.2829ZM15.7111 9.30594C14.9358 9.36689 14.3478 9.73836 13.9161 10.4369C13.5359 11.0468 13.3161 11.8294 13.104 12.5851L13.1003 12.5995C12.8693 13.3995 12.6517 14.1581 12.2774 14.7415C11.8631 15.3861 11.3199 15.7153 10.5683 15.7766C9.82309 15.8408 9.24847 15.3685 8.87384 14.915C9.08502 14.9814 9.30901 15.0025 9.53723 14.9737C10.3038 14.8687 10.8716 14.4806 11.2747 13.7884C11.6259 13.1829 11.8115 12.4213 11.991 11.6843C12.3648 10.1529 12.7176 8.70345 14.3782 8.47607C15.0152 8.38692 15.6766 8.67843 16.238 9.29664C16.2569 9.31741 16.2758 9.33818 16.2948 9.35895C16.0991 9.30399 15.9071 9.28593 15.7111 9.30594Z" fill="#1B1B1B"/>
</svg>
